<svg xmlns="http://www.w3.org/2000/svg" viewBox="0 0 410 404" fill="none">
  <defs>
    <linearGradient id="paint0_linear" x1="203.873" y1="-6.089" x2="64.454" y2="132.307" gradientUnits="userSpaceOnUse">
      <stop stop-color="#41D1FF"/>
      <stop offset="1" stop-color="#BD34FE"/>
    </linearGradient>
    <linearGradient id="paint1_linear" x1="-12.906" y1="198.585" x2="166.452" y2="373.48" gradientUnits="userSpaceOnUse">
      <stop stop-color="#FFEA83"/>
      <stop offset="0.083" stop-color="#FFDD35"/>
      <stop offset="1" stop-color="#FFA800"/>
    </linearGradient>
  </defs>
  <path d="M399.641 59.524L215.643 388.545c-5.938 10.63-21.353 9.612-25.12-1.69L136.4 222.684l-86.99-61.14c-9.39-6.6-7.49-21.3 3.25-25.09L381.655 34.81c10.67-3.76 20.88 6.45 17.11 17.12z" fill="url(#paint0_linear)"/>
  <path d="M292.633 3.002L156.507 46.495a12 12 0 00-8.2 9.98l-12.53 142.39a12 12 0 0017.38 11.98l38.12-17.52c9.14-4.2 19.8-3.17 27.89 2.72l33.39 24.1c8.39 6.06 20.2 1.7 22.37-8.35l34.2-160.08c2.56-11.98-8.39-22.2-20.09-18.54l-55.3 17.62c-13.32 4.24-26.79-6.35-24.86-20.19l3.36-24.58c1.39-10.17-7.57-18.7-17.5-15.55z" fill="url(#paint1_linear)"/>
</svg>
